<svg width="659" height="659" viewBox="0 0 659 659" fill="none" xmlns="http://www.w3.org/2000/svg">
<rect width="659" height="659" rx="200" fill="#292A38"/>
<path d="M319.709 179.743C319.709 181.47 318.803 183.058 317.442 184.122C314.604 186.342 311.325 189.621 306.69 194.256L193.863 307.082C185.943 315.002 181.983 318.963 180.499 323.529C179.194 327.546 179.194 331.873 180.499 335.89C181.983 340.456 185.943 344.417 193.863 352.337L306.69 465.164C311.325 469.799 314.604 473.078 317.442 475.298C318.803 476.362 319.709 477.949 319.709 479.677V547.418C319.709 551.341 315.619 553.407 312.782 550.698C311.018 549.012 309.026 547.021 306.69 544.685L114.343 352.337C106.423 344.417 102.462 340.456 100.979 335.89C99.6737 331.873 99.6736 327.546 100.979 323.529C102.463 318.963 106.423 315.002 114.343 307.082L306.69 114.735C309.026 112.399 311.018 110.407 312.782 108.722C315.619 106.013 319.709 108.079 319.709 112.002V179.743Z" fill="#FD8A05"/>
<path d="M339.709 112.983C339.709 108.964 343.983 106.898 346.865 109.699C348.373 111.163 350.045 112.835 351.945 114.735L544.292 307.082C552.212 315.002 556.173 318.963 557.656 323.529C558.961 327.546 558.961 331.873 557.656 335.89C556.173 340.456 552.212 344.417 544.292 352.337L351.945 544.685C350.045 546.584 348.373 548.256 346.865 549.721C343.983 552.522 339.709 550.456 339.709 546.436V479.027C339.709 477.375 340.537 475.845 341.816 474.8C344.512 472.597 347.645 469.464 351.945 465.164L464.772 352.337C472.692 344.417 476.652 340.456 478.136 335.89C479.441 331.873 479.441 327.546 478.136 323.529C476.652 318.963 472.692 315.002 464.772 307.082L351.945 194.256C347.645 189.956 344.512 186.823 341.816 184.62C340.537 183.575 339.709 182.044 339.709 180.393V112.983Z" fill="#FD8A05"/>
<path d="M314.868 260.703C322.679 252.893 335.342 252.893 343.153 260.703L398.307 315.857C406.117 323.668 406.117 336.332 398.307 344.143L343.153 399.297C335.342 407.107 322.679 407.107 314.868 399.297L259.714 344.143C251.904 336.332 251.904 323.668 259.714 315.857L314.868 260.703Z" fill="#FD8A05"/>
</svg>
