<svg width="2234" height="659" viewBox="0 0 2234 659" fill="none" xmlns="http://www.w3.org/2000/svg">
<rect width="2234" height="659" fill="black"/>
<path d="M271.099 154.223C271.099 156.244 270.038 158.102 268.446 159.347C265.125 161.944 261.288 165.781 255.864 171.205L123.837 303.231C114.569 312.499 109.935 317.134 108.199 322.478C106.672 327.178 106.672 332.241 108.199 336.941C109.935 342.285 114.569 346.919 123.837 356.187L255.864 488.215C261.288 493.639 265.125 497.476 268.446 500.073C270.038 501.318 271.099 503.176 271.099 505.197V584.466C271.099 589.057 266.313 591.474 262.993 588.304C260.928 586.332 258.597 584.001 255.864 581.268L30.7846 356.187C21.5166 346.919 16.8823 342.285 15.1461 336.941C13.619 332.241 13.6189 327.178 15.1461 322.478C16.8824 317.134 21.5166 312.499 30.7846 303.231L255.864 78.1523C258.597 75.4185 260.928 73.0879 262.993 71.116C266.313 67.9454 271.099 70.3628 271.099 74.9535V154.223Z" fill="white"/>
<path d="M294.502 76.1021C294.502 71.3989 299.503 68.9809 302.876 72.2586C304.64 73.9725 306.596 75.9291 308.82 78.1523L533.9 303.231C543.168 312.499 547.802 317.134 549.538 322.478C551.065 327.178 551.065 332.241 549.538 336.941C547.802 342.285 543.168 346.92 533.9 356.187L308.82 581.268C306.597 583.491 304.64 585.447 302.876 587.161C299.503 590.439 294.502 588.021 294.502 583.318V504.437C294.502 502.504 295.47 500.713 296.967 499.49C300.122 496.912 303.788 493.246 308.82 488.215L440.847 356.187C450.115 346.92 454.749 342.285 456.486 336.941C458.013 332.241 458.013 327.178 456.486 322.478C454.749 317.134 450.115 312.499 440.847 303.231L308.82 171.205C303.788 166.174 300.122 162.508 296.967 159.93C295.47 158.707 294.502 156.916 294.502 154.983V76.1021Z" fill="white"/>
<path d="M265.434 248.96C274.574 239.821 289.392 239.821 298.532 248.96L363.072 313.5C372.211 322.64 372.211 337.459 363.072 346.599L298.532 411.139C289.392 420.278 274.574 420.278 265.434 411.139L200.894 346.599C191.754 337.459 191.754 322.64 200.894 313.5L265.434 248.96Z" fill="white"/>
<path d="M775.419 223.192C800.594 223.192 820.282 229.431 834.483 241.911C848.684 254.391 855.785 271.82 855.785 294.198C855.785 316.791 848.684 334.327 834.483 346.807C820.282 359.071 800.594 365.204 775.419 365.204H735.074V436.21H679.56V223.192H775.419ZM766.704 323.568C777.678 323.568 785.962 321.202 791.556 316.468C797.151 311.519 799.948 304.095 799.948 294.198C799.948 284.3 797.151 276.984 791.556 272.25C785.962 267.301 777.678 264.827 766.704 264.827H735.074V323.568H766.704ZM984.968 219.964C1006.27 219.964 1024.56 224.375 1039.84 233.197C1055.11 241.804 1066.84 254.284 1075.02 270.637C1083.19 286.989 1087.28 306.678 1087.28 329.701C1087.28 352.509 1083.19 372.197 1075.02 388.765C1066.84 405.118 1055.11 417.705 1039.84 426.527C1024.56 435.134 1006.27 439.438 984.968 439.438C963.881 439.438 945.591 435.134 930.099 426.527C914.822 417.705 902.988 405.118 894.596 388.765C886.42 372.197 882.331 352.509 882.331 329.701C882.331 306.678 886.42 286.989 894.596 270.637C902.988 254.284 914.822 241.804 930.099 233.197C945.591 224.375 963.881 219.964 984.968 219.964ZM984.968 263.536C975.07 263.536 966.678 266.01 959.793 270.959C953.122 275.908 947.958 283.332 944.3 293.229C940.858 302.912 939.136 315.069 939.136 329.701C939.136 344.117 940.858 356.274 944.3 366.172C947.958 376.07 953.122 383.493 959.793 388.442C966.678 393.391 975.07 395.866 984.968 395.866C994.865 395.866 1003.15 393.391 1009.82 388.442C1016.49 383.493 1021.55 376.07 1024.99 366.172C1028.65 356.274 1030.48 344.117 1030.48 329.701C1030.48 315.069 1028.65 302.912 1024.99 293.229C1021.55 283.332 1016.49 275.908 1009.82 270.959C1003.15 266.01 994.865 263.536 984.968 263.536ZM1180.75 393.284H1283.71V436.21H1125.24V223.192H1180.75V393.284ZM1459.81 223.192L1386.55 358.426V436.21H1331.03V358.426L1257.77 223.192H1315.22L1343.94 281.61L1359.11 317.113L1374.6 281.61L1403.33 223.192H1459.81ZM1579.88 223.192C1604.84 223.192 1624.2 229.109 1637.97 240.943C1651.74 252.777 1658.63 268.7 1658.63 288.711C1658.63 303.127 1655.51 315.392 1649.27 325.505C1643.24 335.403 1634.31 342.934 1622.48 348.098C1610.86 353.047 1596.77 355.521 1580.2 355.521L1575.03 358.426H1534.69V436.21H1480.14V223.192H1579.88ZM1572.13 319.05C1581.38 319.05 1588.81 317.113 1594.4 313.24C1599.99 309.367 1602.79 302.267 1602.79 291.938C1602.79 281.395 1599.89 274.294 1594.08 270.637C1588.27 266.979 1580.95 265.15 1572.13 265.15H1534.69V319.05H1572.13ZM1604.73 330.669L1670.89 436.21H1609.57L1556.96 342.934L1604.73 330.669ZM1888.35 436.21H1831.22L1817.02 388.119H1746.66L1732.14 436.21H1676.3L1749.24 223.192H1815.73L1888.35 436.21ZM1756.99 350.357H1806.69L1781.84 264.181L1756.99 350.357ZM1968.73 223.192V436.21H1913.22V223.192H1968.73ZM2105.05 223.192C2137.54 223.192 2162.39 232.444 2179.61 250.948C2197.03 269.453 2205.75 295.704 2205.75 329.701C2205.75 363.698 2197.03 389.948 2179.61 408.453C2162.39 426.958 2137.54 436.21 2105.05 436.21H2015.97V223.192H2105.05ZM2099.56 394.252C2114.84 394.252 2126.89 389.518 2135.71 380.051C2144.53 370.368 2148.94 353.585 2148.94 329.701C2148.94 313.563 2146.9 300.868 2142.81 291.616C2138.72 282.148 2133.02 275.37 2125.71 271.282C2118.39 267.194 2109.68 265.15 2099.56 265.15H2071.48V394.252H2099.56Z" fill="white"/>
</svg>
